<svg width="10" height="19" viewBox="0 0 10 19" fill="none" xmlns="http://www.w3.org/2000/svg">
<path d="M2.95966 10.3429H0V6.96138H2.95491C2.95491 6.86486 2.95491 6.79248 2.95491 6.71994C2.95868 5.84152 2.93736 4.96205 2.97284 4.08489C3.01556 3.02643 3.32886 2.05431 4.08023 1.25874C4.72334 0.578541 5.53422 0.215278 6.45222 0.0794904C7.4784 -0.0723334 8.50646 0.0275214 9.53332 0.097828C9.6882 0.10837 9.84263 0.125966 10 0.140591V3.16103C9.82485 3.16103 9.65731 3.15895 9.48977 3.1614C8.93141 3.16964 8.37199 3.16036 7.81513 3.19318C7.00606 3.24084 6.57471 3.61635 6.52454 4.41074C6.47181 5.24774 6.51271 6.09052 6.51271 6.9587H9.88715C9.7383 8.09697 9.59336 9.20495 9.4451 10.3386H6.49644V19H2.95966V10.3429Z" fill="#1D1D1B"/>
</svg>
