<svg width="20" height="16" viewBox="0 0 20 16" fill="none" xmlns="http://www.w3.org/2000/svg">
<path d="M0 14.1967C2.2416 14.3946 4.22212 13.8645 6.02275 12.5377C4.14788 12.3714 2.8988 11.4427 2.19599 9.72227C2.81957 9.79232 3.39838 9.80559 4.02726 9.64107C3.03876 9.40242 2.2622 8.93079 1.66464 8.19095C1.0688 7.45318 0.774015 6.6106 0.772694 5.65951C1.0712 5.77076 1.34955 5.89696 1.64096 5.97681C1.93237 6.05666 2.23753 6.08964 2.53961 6.12642C0.75772 4.62746 0.340592 2.85316 1.34084 0.721617C3.58248 3.3145 6.38723 4.73366 9.79481 4.95928C9.78013 4.55789 9.74426 4.17617 9.75566 3.79584C9.80533 2.13573 11.0977 0.558879 12.7368 0.149944C14.2541 -0.228703 15.5843 0.109785 16.7274 1.16541C16.8123 1.24391 16.8835 1.27512 17.0022 1.23824C17.4116 1.11103 17.8336 1.01853 18.2345 0.87022C18.6354 0.721905 19.0163 0.522678 19.4285 0.33547C19.3052 0.77862 19.0827 1.18913 18.7773 1.53708C18.4717 1.88044 18.1197 2.18395 17.7954 2.49793C18.5259 2.41846 19.2495 2.19577 20 1.89924C19.4752 2.6573 18.8907 3.29147 18.1816 3.80622C18.0023 3.93646 17.9554 4.07319 17.9599 4.28597C17.999 6.13887 17.5816 7.89678 16.7641 9.5616C15.7825 11.56 14.3575 13.1779 12.4297 14.3506C11.0573 15.1854 9.56261 15.6824 7.96398 15.8903C6.57132 16.0768 5.15632 16.0252 3.78155 15.7379C2.4725 15.4619 1.22282 14.9627 0.0892097 14.2629C0.0731588 14.2532 0.0588696 14.2405 0 14.1967Z" fill="#1D1D1B"/>
</svg>
