<svg width="37" height="28" viewBox="0 0 37 28" fill="none" xmlns="http://www.w3.org/2000/svg">
<path d="M16.264 5.45144C18.3111 2.59697 21.0555 0.976039 24.3613 0.324512C28.0401 -0.399691 31.5478 -0.0312084 34.404 2.65779C38.1036 6.14141 37.8039 10.4488 33.7929 13.5441C31.8805 15.0192 29.6735 15.8792 27.467 16.7717C25.5177 17.5602 23.5506 18.3333 21.6873 19.2991C18.9216 20.7318 16.893 22.809 16.5099 26.112C16.4126 26.9514 15.7192 27.2832 14.9923 27.4634C14.3939 27.6122 14.1451 27.3616 14.1077 26.7024C14.0777 26.1796 13.9345 25.5399 13.5989 25.1776C12.0059 23.4576 10.2969 21.8449 8.68996 20.1367C6.40638 17.7091 4.10148 15.294 1.952 12.7498C0.735284 11.3444 0.0455175 9.55944 0.00102098 7.70108C-0.0784116 3.33349 4.49114 -0.499846 8.79116 0.272407C11.6396 0.78459 13.8035 2.35312 15.5632 4.56913C15.7812 4.84361 15.9999 5.11825 16.2644 5.45144M15.2462 22.6443C15.3603 22.5979 15.438 22.5924 15.4643 22.5526C17.3693 19.6287 20.3044 18.1261 23.3799 16.8228C25.5378 15.908 27.752 15.1095 29.8495 14.0739C31.0299 13.4817 32.1 12.6915 33.0134 11.7377C34.9156 9.74981 34.9023 7.37269 33.0343 5.35249C30.3766 2.4767 27.0255 1.59033 23.2477 2.33015C20.7392 2.82161 18.8381 4.20274 17.8109 6.61335C17.6017 7.10376 17.5206 7.64943 17.3921 8.17347C17.1774 9.04693 16.5383 9.48298 15.7353 9.6396C14.9413 9.79456 15.0195 9.00444 14.7606 8.58325C14.0999 7.51128 13.5433 6.35043 12.7431 5.39483C11.1548 3.49776 9.23742 2.21438 6.54678 2.67686C3.33344 3.22838 1.72947 5.80146 3.03508 8.76013C3.72421 10.361 4.66658 11.8405 5.82603 13.1418C8.18063 15.7062 10.7635 18.0608 13.2389 20.5145C13.9363 21.2063 14.5888 21.9432 15.2464 22.6433" fill="#E16095"/>
</svg>
