<svg width="16" height="18" viewBox="0 0 16 18" fill="none" xmlns="http://www.w3.org/2000/svg">
<path d="M6.55134 6.9257V9.88796C6.39019 9.85842 6.24165 9.82613 6.09161 9.80449C4.63081 9.59393 3.23724 10.6116 3.04803 12.0251C2.84487 13.5447 3.86524 14.8808 5.3746 15.0716C6.92811 15.2678 8.33436 14.1129 8.39311 12.5685C8.42238 11.8001 8.40735 11.03 8.40778 10.2607C8.40992 6.91879 8.41115 3.57688 8.41148 0.234959C8.41148 0.160164 8.41148 0.0853693 8.41148 0H11.3409C11.4135 0.400763 11.4558 0.798777 11.5597 1.1803C11.8175 2.1037 12.3652 2.92203 13.1237 3.51699C13.8822 4.11195 14.8122 4.45272 15.7792 4.49003C15.9663 4.49602 16.0015 4.55347 16 4.72351C15.9915 5.55154 15.9961 6.37971 15.9961 7.20782V7.4236C15.1685 7.43226 14.3455 7.30038 13.5629 7.03369C12.7787 6.7695 12.043 6.3809 11.3846 5.88308C11.3846 5.98353 11.3846 6.04585 11.3846 6.10817C11.3907 8.14617 11.3903 10.1842 11.4054 12.2222C11.4138 13.3538 11.1781 14.4209 10.5444 15.3688C9.31414 17.2087 7.56936 18.0994 5.34106 17.9912C4.15324 17.9288 3.01574 17.4963 2.09112 16.7555C1.1665 16.0148 0.502075 15.0036 0.192807 13.8665C-0.60403 10.9791 1.14396 7.91742 4.05387 7.09432C4.7958 6.88032 5.57269 6.81122 6.34127 6.89087C6.41084 6.89792 6.47949 6.91357 6.55141 6.9257" fill="#1D1D1B"/>
</svg>
