<svg width="19" height="19" viewBox="0 0 19 19" fill="none" xmlns="http://www.w3.org/2000/svg">
<path d="M0 14.1766V4.82667C0.011288 4.76655 0.021554 4.70619 0.0340962 4.64629C0.104658 4.30843 0.144003 3.96016 0.25182 3.63471C0.983959 1.42809 2.91722 0.0150764 5.23163 0.00606179C8.075 -0.00504379 10.9184 0.00211211 13.7618 0.00415665C14.6621 0.00480719 15.521 0.201966 16.2984 0.657249C18.0644 1.69137 18.9772 3.24545 18.9901 5.29311C19.0078 8.09971 18.9978 10.9063 18.9903 13.7129C18.9958 14.0652 18.9635 14.4171 18.8939 14.7625C18.42 16.8907 17.125 18.2549 15.0246 18.8433C14.7475 18.9209 14.4563 18.949 14.1717 19H4.82285C4.62896 18.9689 4.43265 18.9484 4.24159 18.9052C2.11183 18.4238 0.745611 17.1319 0.156545 15.0287C0.0789695 14.7518 0.0510979 14.461 0 14.1766ZM9.48874 4.29505C6.61021 4.31154 4.29269 6.63289 4.29125 9.50092C4.28981 12.3717 6.64602 14.7247 9.50583 14.7083C12.3842 14.6917 14.7019 12.3703 14.7033 9.5024C14.7047 6.63154 12.3485 4.27869 9.48874 4.29505ZM16.5968 3.98121C16.5949 3.56331 16.4276 3.16316 16.1316 2.86822C15.8357 2.57328 15.435 2.40754 15.0172 2.40722C14.5994 2.4069 14.1985 2.57203 13.9021 2.86651C13.6057 3.161 13.4378 3.56089 13.4353 3.97879C13.4349 4.83643 14.1577 5.56043 15.0172 5.56331C15.8756 5.56615 16.5947 4.84596 16.5966 3.98126" fill="#1D1D1B"/>
<path d="M13.5812 9.51035C13.5738 11.7696 11.7304 13.6012 9.47938 13.5862C7.22453 13.5712 5.40577 11.7404 5.41311 9.49302C5.42045 7.23403 7.26424 5.40203 9.5152 5.41708C11.7701 5.43219 13.5886 7.26284 13.5813 9.51035" fill="#1D1D1B"/>
<path d="M15.4739 3.97694C15.4732 4.09846 15.4248 4.21483 15.3393 4.30113C15.2538 4.38742 15.1379 4.43677 15.0164 4.43859C14.8951 4.43432 14.78 4.3836 14.695 4.29692C14.61 4.21024 14.5615 4.09422 14.5596 3.9728C14.5638 3.85459 14.6128 3.74241 14.6966 3.65902C14.7805 3.57564 14.8929 3.52731 15.0111 3.52384C15.0713 3.52307 15.131 3.53419 15.1869 3.55658C15.2428 3.57896 15.2937 3.61216 15.3367 3.65428C15.3797 3.69639 15.4139 3.74659 15.4375 3.80198C15.4611 3.85738 15.4734 3.91688 15.4739 3.97708" fill="#1D1D1B"/>
</svg>
