<svg width="19" height="19" viewBox="0 0 19 19" fill="none" xmlns="http://www.w3.org/2000/svg">
<path d="M0.631747 18.5918C0.803429 18.077 0.966193 17.5874 1.1297 17.0982C1.3378 16.4775 1.54152 15.856 1.75772 15.2385C1.78004 15.1857 1.78751 15.1277 1.77934 15.071C1.77117 15.0142 1.74766 14.9607 1.71134 14.9163C0.889459 13.7574 0.347427 12.4237 0.127847 11.0198C-0.179176 9.08179 0.0594708 7.20536 0.923087 5.4374C2.23055 2.76157 4.3314 1.00581 7.22198 0.285604C11.7772 -0.849656 16.4061 1.48838 18.2484 5.79572C19.8564 9.55521 18.8236 13.996 15.7215 16.6719C14.2019 17.9827 12.4444 18.7569 10.4507 18.9516C8.32402 19.1592 6.33667 18.7043 4.51527 17.5727C4.44481 17.5217 4.36275 17.4891 4.27652 17.4779C4.1903 17.4667 4.10263 17.4771 4.02148 17.5084C2.96135 17.8605 1.89521 18.1938 0.831077 18.5335C0.774444 18.5516 0.716993 18.567 0.63197 18.5918M12.5558 14.8556C12.8769 14.7939 13.1468 14.7748 13.3938 14.6892C14.7331 14.225 15.1875 13.5796 15.2237 12.3337C15.2329 12.2504 15.2148 12.1664 15.172 12.0944C15.1293 12.0224 15.0642 11.9663 14.9867 11.9346C14.2794 11.5973 13.5765 11.2505 12.8664 10.9192C12.4967 10.7468 12.283 10.8178 12.0371 11.1514C11.8576 11.3951 11.6804 11.6407 11.4938 11.879C11.2021 12.2517 10.9977 12.302 10.562 12.1243C8.97285 11.4759 7.79887 10.3577 6.92358 8.90297C6.79114 8.68287 6.80311 8.5535 6.97561 8.34597C7.16141 8.1229 7.35844 7.90913 7.54885 7.68971C7.77449 7.42946 7.83737 7.16059 7.68382 6.82317C7.35941 6.1101 7.07133 5.38067 6.75547 4.66344C6.71036 4.56097 6.60608 4.43762 6.50738 4.4136C6.00876 4.2924 5.48851 4.26601 5.07298 4.60693C4.14983 5.36461 3.8573 6.37867 4.04021 7.53252C4.1748 8.37913 4.58498 9.11131 5.06978 9.8078C5.79709 10.8523 6.61463 11.8129 7.58594 12.6413C8.65825 13.5563 9.8986 14.1476 11.2351 14.5495C11.6811 14.6833 12.1443 14.7617 12.5559 14.8556" fill="#1D1D1B"/>
</svg>
