<svg width="198" height="30" viewBox="0 0 198 30" fill="none" xmlns="http://www.w3.org/2000/svg">
<path d="M33.9981 22L39.0381 10.8H41.0861L46.1421 22H43.9661L39.6301 11.904H40.4621L36.1421 22H33.9981ZM36.3181 19.408L36.8781 17.776H42.9261L43.4861 19.408H36.3181ZM47.5665 22V10.8H49.2785L54.1745 18.976H53.2785L58.0945 10.8H59.8065L59.8225 22H57.8545L57.8385 13.888H58.2545L54.1585 20.72H53.2305L49.0705 13.888H49.5505V22H47.5665ZM62.8478 22V10.8H68.0958C69.4398 10.8 70.4638 11.0667 71.1678 11.6C71.8718 12.1227 72.2238 12.8267 72.2238 13.712C72.2238 14.3093 72.0851 14.8213 71.8078 15.248C71.5304 15.664 71.1571 15.9893 70.6878 16.224C70.2291 16.448 69.7278 16.56 69.1838 16.56L69.4718 15.984C70.1011 15.984 70.6664 16.1013 71.1678 16.336C71.6691 16.56 72.0638 16.8907 72.3518 17.328C72.6504 17.7653 72.7998 18.3093 72.7998 18.96C72.7998 19.92 72.4318 20.6667 71.6958 21.2C70.9598 21.7333 69.8664 22 68.4158 22H62.8478ZM64.9278 20.368H68.2878C69.0664 20.368 69.6638 20.24 70.0798 19.984C70.4958 19.728 70.7038 19.3173 70.7038 18.752C70.7038 18.1973 70.4958 17.792 70.0798 17.536C69.6638 17.2693 69.0664 17.136 68.2878 17.136H64.7678V15.52H67.8718C68.5971 15.52 69.1518 15.392 69.5358 15.136C69.9304 14.88 70.1278 14.496 70.1278 13.984C70.1278 13.4613 69.9304 13.072 69.5358 12.816C69.1518 12.56 68.5971 12.432 67.8718 12.432H64.9278V20.368ZM75.0196 22V10.8H77.0996V22H75.0196ZM82.049 15.456H87.617V17.168H82.049V15.456ZM82.209 20.256H88.529V22H80.129V10.8H88.305V12.544H82.209V20.256ZM90.8478 22V10.8H92.5598L99.5838 19.424H98.7358V10.8H100.8V22H99.0878L92.0638 13.376H92.9118V22H90.8478ZM106.073 22V12.56H102.361V10.8H111.865V12.56H108.153V22H106.073ZM115.346 15.456H120.914V17.168H115.346V15.456ZM115.506 20.256H121.826V22H113.426V10.8H121.602V12.544H115.506V20.256ZM132.039 22.16C131.164 22.16 130.327 22.0373 129.527 21.792C128.727 21.536 128.092 21.2107 127.623 20.816L128.343 19.2C128.791 19.552 129.345 19.8453 130.007 20.08C130.668 20.3147 131.345 20.432 132.039 20.432C132.625 20.432 133.1 20.368 133.463 20.24C133.825 20.112 134.092 19.9413 134.263 19.728C134.433 19.504 134.519 19.2533 134.519 18.976C134.519 18.6347 134.396 18.3627 134.151 18.16C133.905 17.9467 133.585 17.7813 133.191 17.664C132.807 17.536 132.375 17.4187 131.895 17.312C131.425 17.2053 130.951 17.0827 130.471 16.944C130.001 16.7947 129.569 16.608 129.174 16.384C128.791 16.1493 128.476 15.84 128.231 15.456C127.985 15.072 127.863 14.5813 127.863 13.984C127.863 13.376 128.023 12.8213 128.343 12.32C128.673 11.808 129.169 11.4027 129.831 11.104C130.503 10.7947 131.351 10.64 132.375 10.64C133.047 10.64 133.713 10.7253 134.375 10.896C135.036 11.0667 135.612 11.312 136.102 11.632L135.447 13.248C134.945 12.9493 134.428 12.7307 133.895 12.592C133.361 12.4427 132.849 12.368 132.359 12.368C131.783 12.368 131.313 12.4373 130.951 12.576C130.599 12.7147 130.337 12.896 130.167 13.12C130.007 13.344 129.927 13.6 129.927 13.888C129.927 14.2293 130.044 14.5067 130.279 14.72C130.524 14.9227 130.839 15.0827 131.223 15.2C131.617 15.3173 132.055 15.4347 132.535 15.552C133.015 15.6587 133.489 15.7813 133.959 15.92C134.439 16.0587 134.871 16.24 135.255 16.464C135.649 16.688 135.964 16.992 136.199 17.376C136.444 17.76 136.567 18.2453 136.567 18.832C136.567 19.4293 136.401 19.984 136.071 20.496C135.751 20.9973 135.255 21.4027 134.583 21.712C133.911 22.0107 133.063 22.16 132.039 22.16ZM140.549 15.456H146.117V17.168H140.549V15.456ZM140.709 20.256H147.029V22H138.629V10.8H146.805V12.544H140.709V20.256ZM154.58 22.16C153.705 22.16 152.9 22.0213 152.164 21.744C151.438 21.456 150.804 21.056 150.26 20.544C149.716 20.0213 149.294 19.408 148.996 18.704C148.697 18 148.548 17.232 148.548 16.4C148.548 15.568 148.697 14.8 148.996 14.096C149.294 13.392 149.716 12.784 150.26 12.272C150.814 11.7493 151.46 11.3493 152.196 11.072C152.932 10.784 153.737 10.64 154.612 10.64C155.561 10.64 156.414 10.7947 157.172 11.104C157.94 11.4133 158.585 11.8667 159.108 12.464L157.796 13.744C157.358 13.3067 156.884 12.9867 156.372 12.784C155.87 12.5707 155.316 12.464 154.708 12.464C154.121 12.464 153.577 12.56 153.076 12.752C152.574 12.944 152.142 13.216 151.78 13.568C151.417 13.92 151.134 14.336 150.932 14.816C150.74 15.296 150.644 15.824 150.644 16.4C150.644 16.9653 150.74 17.488 150.932 17.968C151.134 18.448 151.417 18.8693 151.78 19.232C152.142 19.584 152.569 19.856 153.06 20.048C153.55 20.24 154.094 20.336 154.692 20.336C155.246 20.336 155.78 20.2507 156.292 20.08C156.814 19.8987 157.31 19.6 157.78 19.184L158.964 20.736C158.377 21.2053 157.694 21.5627 156.916 21.808C156.148 22.0427 155.369 22.16 154.58 22.16ZM156.996 20.464V16.272H158.964V20.736L156.996 20.464ZM166.523 22.16C164.987 22.16 163.782 21.728 162.907 20.864C162.043 20 161.611 18.752 161.611 17.12V10.8H163.691V17.04C163.691 18.192 163.936 19.0293 164.427 19.552C164.928 20.0747 165.632 20.336 166.539 20.336C167.446 20.336 168.144 20.0747 168.635 19.552C169.126 19.0293 169.371 18.192 169.371 17.04V10.8H171.419V17.12C171.419 18.752 170.982 20 170.107 20.864C169.243 21.728 168.048 22.16 166.523 22.16ZM174.332 22V10.8H178.94C179.932 10.8 180.78 10.96 181.484 11.28C182.199 11.6 182.748 12.0587 183.132 12.656C183.516 13.2533 183.708 13.9627 183.708 14.784C183.708 15.6053 183.516 16.3147 183.132 16.912C182.748 17.4987 182.199 17.952 181.484 18.272C180.78 18.5813 179.932 18.736 178.94 18.736H175.484L176.412 17.792V22H174.332ZM181.66 22L178.828 17.936H181.052L183.9 22H181.66ZM176.412 18.016L175.484 17.024H178.844C179.761 17.024 180.449 16.8267 180.908 16.432C181.377 16.0373 181.612 15.488 181.612 14.784C181.612 14.0693 181.377 13.52 180.908 13.136C180.449 12.752 179.761 12.56 178.844 12.56H175.484L176.412 11.536V18.016ZM191.283 22.16C190.409 22.16 189.603 22.016 188.867 21.728C188.131 21.44 187.491 21.04 186.947 20.528C186.403 20.0053 185.982 19.3973 185.683 18.704C185.385 18 185.235 17.232 185.235 16.4C185.235 15.568 185.385 14.8053 185.683 14.112C185.982 13.408 186.403 12.8 186.947 12.288C187.491 11.7653 188.131 11.36 188.867 11.072C189.603 10.784 190.403 10.64 191.267 10.64C192.142 10.64 192.942 10.784 193.667 11.072C194.403 11.36 195.043 11.7653 195.587 12.288C196.131 12.8 196.553 13.408 196.851 14.112C197.15 14.8053 197.299 15.568 197.299 16.4C197.299 17.232 197.15 18 196.851 18.704C196.553 19.408 196.131 20.016 195.587 20.528C195.043 21.04 194.403 21.44 193.667 21.728C192.942 22.016 192.147 22.16 191.283 22.16ZM191.267 20.336C191.833 20.336 192.355 20.24 192.835 20.048C193.315 19.856 193.731 19.584 194.083 19.232C194.435 18.8693 194.707 18.4533 194.899 17.984C195.102 17.504 195.203 16.976 195.203 16.4C195.203 15.824 195.102 15.3013 194.899 14.832C194.707 14.352 194.435 13.936 194.083 13.584C193.731 13.2213 193.315 12.944 192.835 12.752C192.355 12.56 191.833 12.464 191.267 12.464C190.702 12.464 190.179 12.56 189.699 12.752C189.23 12.944 188.814 13.2213 188.451 13.584C188.099 13.936 187.822 14.352 187.619 14.832C187.427 15.3013 187.331 15.824 187.331 16.4C187.331 16.9653 187.427 17.488 187.619 17.968C187.822 18.448 188.099 18.8693 188.451 19.232C188.803 19.584 189.219 19.856 189.699 20.048C190.179 20.24 190.702 20.336 191.267 20.336Z" fill="#1D1D1B"/>
<path d="M16.125 13C16.6458 13 17.0885 13.1823 17.4531 13.5469C17.8177 13.9115 18 14.3542 18 14.875V23.625C18 24.1458 17.8177 24.5885 17.4531 24.9531C17.0885 25.3177 16.6458 25.5 16.125 25.5H2.375C1.85417 25.5 1.41146 25.3177 1.04688 24.9531C0.682292 24.5885 0.5 24.1458 0.5 23.625V14.875C0.5 14.3542 0.682292 13.9115 1.04688 13.5469C1.41146 13.1823 1.85417 13 2.375 13H3.625V11.125C3.625 9.5625 4.17188 8.23438 5.26562 7.14062C6.38542 6.04688 7.71354 5.5 9.25 5.5C10.8125 5.5 12.1406 6.0599 13.2344 7.17969C14.3281 8.29948 14.875 9.6276 14.875 11.1641V13H16.125ZM5.5 11.125V13H13V11.125C13 10.0833 12.6354 9.19792 11.9062 8.46875C11.1771 7.73958 10.2917 7.375 9.25 7.375C8.20833 7.375 7.32292 7.73958 6.59375 8.46875C5.86458 9.19792 5.5 10.0833 5.5 11.125ZM16.125 23.625V14.875H2.375V23.625H16.125Z" fill="#89D6B7"/>
</svg>
