<svg width="62" height="46" viewBox="0 0 62 46" fill="none" xmlns="http://www.w3.org/2000/svg">
<path d="M27.0773 9.08939C30.4854 4.33003 35.0545 1.62739 40.5583 0.54107C46.683 -0.66642 52.5228 -0.052035 57.2781 4.43143C63.4373 10.2398 62.9384 17.4216 56.2606 22.5826C53.0768 25.0421 49.4024 26.4759 45.7288 27.9641C42.4834 29.2787 39.2086 30.5678 36.1065 32.1782C31.5019 34.5668 28.1245 38.0303 27.4868 43.5375C27.3248 44.937 26.1704 45.4903 24.9602 45.7908C23.964 46.0389 23.5497 45.621 23.4875 44.5219C23.4375 43.6502 23.199 42.5837 22.6403 41.9795C19.9881 39.1116 17.143 36.4228 14.4676 33.5747C10.6658 29.5271 6.82842 25.5003 3.24982 21.2582C1.22415 18.9149 0.0757805 15.9388 0.00169979 12.8403C-0.130545 5.55805 7.47714 -0.833411 14.6361 0.454195C19.3784 1.30818 22.981 3.92344 25.9106 7.61827C26.2736 8.07593 26.6376 8.53384 27.0781 9.08939M25.3829 37.7557C25.5729 37.6783 25.7021 37.6691 25.7459 37.6027C28.9175 32.7277 33.8041 30.2223 38.9243 28.0492C42.5169 26.524 46.2033 25.1926 49.6954 23.4659C51.6606 22.4785 53.4422 21.161 54.9629 19.5707C58.1298 16.2562 58.1076 12.2928 54.9977 8.9244C50.5729 4.12949 44.9938 2.65161 38.7044 3.88514C34.528 4.70457 31.3629 7.00739 29.6527 11.0267C29.3045 11.8444 29.1695 12.7542 28.9555 13.6279C28.598 15.0843 27.5341 15.8113 26.1971 16.0724C24.8752 16.3308 25.0054 15.0134 24.5744 14.3112C23.4745 12.5238 22.5478 10.5883 21.2156 8.995C18.5712 5.83194 15.3791 3.69211 10.8995 4.46322C5.54972 5.3828 2.87933 9.67298 5.05299 14.6061C6.2003 17.2753 7.76923 19.7421 9.69955 21.9119C13.6196 26.1875 17.9197 30.1134 22.041 34.2046C23.202 35.358 24.2884 36.5868 25.3832 37.7539" fill="#E16095"/>
</svg>
