<svg width="18" height="21" viewBox="0 0 18 21" fill="none" xmlns="http://www.w3.org/2000/svg">
<path d="M16.125 8C16.6458 8 17.0885 8.18229 17.4531 8.54688C17.8177 8.91146 18 9.35417 18 9.875V18.625C18 19.1458 17.8177 19.5885 17.4531 19.9531C17.0885 20.3177 16.6458 20.5 16.125 20.5H2.375C1.85417 20.5 1.41146 20.3177 1.04688 19.9531C0.682292 19.5885 0.5 19.1458 0.5 18.625V9.875C0.5 9.35417 0.682292 8.91146 1.04688 8.54688C1.41146 8.18229 1.85417 8 2.375 8H3.625V6.125C3.625 4.5625 4.17188 3.23438 5.26562 2.14062C6.38542 1.04688 7.71354 0.5 9.25 0.5C10.8125 0.5 12.1406 1.0599 13.2344 2.17969C14.3281 3.29948 14.875 4.6276 14.875 6.16406V8H16.125ZM5.5 6.125V8H13V6.125C13 5.08333 12.6354 4.19792 11.9062 3.46875C11.1771 2.73958 10.2917 2.375 9.25 2.375C8.20833 2.375 7.32292 2.73958 6.59375 3.46875C5.86458 4.19792 5.5 5.08333 5.5 6.125ZM16.125 18.625V9.875H2.375V18.625H16.125Z" fill="#89D6B7"/>
</svg>
